# xmcd CD database file
#
# Track frame offsets:
#	150
#	20982
#	44789
#	62758
#	83085
#	105300
#	126828
#	146605
#	167828
#	185406
#	205141
#	223074
#	243060
#	260882
#	284345
#	303295
#
# Disc length: 4318 seconds
#
# Revision: 13
# Processed by: cddbd v1.5.1PL0 Copyright (c) Steve Scherf et al.
# Submitted via: CDex 1.51
#
DISCID=f210dc10
DTITLE=Various Artist - The Best of DETECTIVE CONAN
DYEAR=2001
DGENRE=Classical
TTITLE0=Nazo
TTITLE1=UnnmeiNoRuurettoMawashite
TTITLE2=GiriGirichop
TTITLE3=Mysterious Eyes
TTITLE4=KoiWa strill,shock,suspense
TTITLE5=HikariToKageNoRomann
TTITLE6=KimigainaiNatsu
TTITLE7=NegaigotoHitotsudake
TTITLE8=KouriNoUeniTatsuyouni
TTITLE9=Still for your love
TTITLE10=Free Magic
TTITLE11=Secret of my heart
TTITLE12=NatsuNoMaboroshi
TTITLE13=ShoujyoNoKoroniModottamitaini
TTITLE14=ONE
TTITLE15=Anatagairukara
EXTD=YEAR: 2001
EXTT0=Miho Komatsu
EXTT1=ZARD
EXTT2=B'z
EXTT3=GARNET CROW
EXTT4=Rina Aiuchi
EXTT5=Keiko Utoku
EXTT6=DEEN
EXTT7=Miho Komatsu
EXTT8=Miho Komatsu
EXTT9=rumania montevideo
EXTT10=WAG
EXTT11=Mai Kuraki
EXTT12=GARNET CROW
EXTT13=ZARD
EXTT14=B'z
EXTT15=Miho Komatsu
PLAYORDER=
